<svg width="31" height="24" viewBox="0 0 31 24" fill="none" xmlns="http://www.w3.org/2000/svg">
<path d="M17.6362 11.945L30.1888 0.479999C30.3992 0.289465 30.2222 0 29.8971 0H26.0811C25.8563 0 25.6411 0.0769462 25.4929 0.208854L15.14 9.66592L4.7871 0.208854C4.64365 0.0769462 4.42846 0 4.19893 0H0.382938C0.0577666 0 -0.119165 0.289465 0.0912399 0.479999L12.6438 11.945L0.0912399 23.41C0.0441072 23.4525 0.0138697 23.5044 0.0041163 23.5597C-0.0056371 23.6149 0.0055032 23.6711 0.0362158 23.7217C0.0669283 23.7722 0.115923 23.8149 0.177382 23.8448C0.238841 23.8746 0.310183 23.8903 0.382938 23.89H4.19893C4.42368 23.89 4.63886 23.813 4.7871 23.6811L15.14 14.2241L25.4929 23.6811C25.6364 23.813 25.8515 23.89 26.0811 23.89H29.8971C30.2222 23.89 30.3992 23.6005 30.1888 23.41L17.6362 11.945Z" fill="#BDBDBD"/>
</svg>
